<?xml version="1.0" encoding="UTF-8" standalone="no"?>
<!DOCTYPE svg PUBLIC "-//W3C//DTD SVG 1.1//EN"
 "http://www.w3.org/Graphics/SVG/1.1/DTD/svg11.dtd">
<!-- Generated by graphviz version 11.0.0 (20240519.1550)
 -->
<!-- Pages: 1 -->
<svg width="1014pt" height="587pt"
 viewBox="0.00 0.00 1014.00 587.50" xmlns="http://www.w3.org/2000/svg" xmlns:xlink="http://www.w3.org/1999/xlink">
<g id="graph0" class="graph" transform="scale(1 1) rotate(0) translate(4 583.5)">
<polygon fill="white" stroke="none" points="-4,4 -4,-583.5 1010,-583.5 1010,4 -4,4"/>
<g id="clust1" class="cluster">
<title>clustervel (1000)</title>
<path fill="none" stroke="black" d="M20,-8C20,-8 186,-8 186,-8 192,-8 198,-14 198,-20 198,-20 198,-559.5 198,-559.5 198,-565.5 192,-571.5 186,-571.5 186,-571.5 20,-571.5 20,-571.5 14,-571.5 8,-565.5 8,-559.5 8,-559.5 8,-20 8,-20 8,-14 14,-8 20,-8"/>
<text text-anchor="middle" x="154" y="-15.95" font-family="Times,serif" font-size="14.00">vel (1000)</text>
</g>
<g id="clust2" class="cluster">
<title>clustercoeff (4)</title>
<path fill="none" stroke="black" d="M218,-229.5C218,-229.5 308,-229.5 308,-229.5 314,-229.5 320,-235.5 320,-241.5 320,-241.5 320,-343.25 320,-343.25 320,-349.25 314,-355.25 308,-355.25 308,-355.25 218,-355.25 218,-355.25 212,-355.25 206,-349.25 206,-343.25 206,-343.25 206,-241.5 206,-241.5 206,-235.5 212,-229.5 218,-229.5"/>
<text text-anchor="middle" x="283.12" y="-237.45" font-family="Times,serif" font-size="14.00">coeff (4)</text>
</g>
<g id="clust3" class="cluster">
<title>clustercloud (2)</title>
<path fill="none" stroke="black" d="M588,-241.87C588,-241.87 986,-241.87 986,-241.87 992,-241.87 998,-247.87 998,-253.87 998,-253.87 998,-463.75 998,-463.75 998,-469.75 992,-475.75 986,-475.75 986,-475.75 588,-475.75 588,-475.75 582,-475.75 576,-469.75 576,-463.75 576,-463.75 576,-253.87 576,-253.87 576,-247.87 582,-241.87 588,-241.87"/>
<text text-anchor="middle" x="958.88" y="-249.82" font-family="Times,serif" font-size="14.00">cloud (2)</text>
</g>
<!-- spectrum -->
<g id="node1" class="node">
<title>spectrum</title>
<path fill="lightgrey" stroke="black" d="M132.75,-101C132.75,-101 73.25,-101 73.25,-101 67.25,-101 61.25,-95 61.25,-89 61.25,-89 61.25,-53.25 61.25,-53.25 61.25,-47.25 67.25,-41.25 73.25,-41.25 73.25,-41.25 132.75,-41.25 132.75,-41.25 138.75,-41.25 144.75,-47.25 144.75,-53.25 144.75,-53.25 144.75,-89 144.75,-89 144.75,-95 138.75,-101 132.75,-101"/>
<text text-anchor="middle" x="103" y="-83.7" font-family="Times,serif" font-size="14.00">spectrum</text>
<text text-anchor="middle" x="103" y="-66.45" font-family="Times,serif" font-size="14.00">~</text>
<text text-anchor="middle" x="103" y="-49.2" font-family="Times,serif" font-size="14.00">Data</text>
</g>
<!-- noise -->
<g id="node2" class="node">
<title>noise</title>
<path fill="lightgrey" stroke="black" d="M164,-334.87C164,-334.87 134,-334.87 134,-334.87 128,-334.87 122,-328.87 122,-322.87 122,-322.87 122,-287.12 122,-287.12 122,-281.12 128,-275.12 134,-275.12 134,-275.12 164,-275.12 164,-275.12 170,-275.12 176,-281.12 176,-287.12 176,-287.12 176,-322.87 176,-322.87 176,-328.87 170,-334.87 164,-334.87"/>
<text text-anchor="middle" x="149" y="-317.57" font-family="Times,serif" font-size="14.00">noise</text>
<text text-anchor="middle" x="149" y="-300.32" font-family="Times,serif" font-size="14.00">~</text>
<text text-anchor="middle" x="149" y="-283.07" font-family="Times,serif" font-size="14.00">Data</text>
</g>
<!-- pred_spectrum -->
<g id="node4" class="node">
<title>pred_spectrum</title>
<ellipse fill="lightgrey" stroke="black" cx="103" cy="-179.25" rx="87.15" ry="42.25"/>
<text text-anchor="middle" x="103" y="-191.82" font-family="Times,serif" font-size="14.00">pred_spectrum</text>
<text text-anchor="middle" x="103" y="-174.57" font-family="Times,serif" font-size="14.00">~</text>
<text text-anchor="middle" x="103" y="-157.32" font-family="Times,serif" font-size="14.00">Normal</text>
</g>
<!-- noise&#45;&gt;pred_spectrum -->
<g id="edge1" class="edge">
<title>noise&#45;&gt;pred_spectrum</title>
<path fill="none" stroke="black" d="M149,-274.88C149,-274.88 149,-226.9 149,-226.9"/>
<polygon fill="black" stroke="black" points="152.5,-226.9 149,-216.9 145.5,-226.9 152.5,-226.9"/>
</g>
<!-- velocity -->
<g id="node3" class="node">
<title>velocity</title>
<path fill="lightgrey" stroke="black" d="M126.75,-563.5C126.75,-563.5 79.25,-563.5 79.25,-563.5 73.25,-563.5 67.25,-557.5 67.25,-551.5 67.25,-551.5 67.25,-515.75 67.25,-515.75 67.25,-509.75 73.25,-503.75 79.25,-503.75 79.25,-503.75 126.75,-503.75 126.75,-503.75 132.75,-503.75 138.75,-509.75 138.75,-515.75 138.75,-515.75 138.75,-551.5 138.75,-551.5 138.75,-557.5 132.75,-563.5 126.75,-563.5"/>
<text text-anchor="middle" x="103" y="-546.2" font-family="Times,serif" font-size="14.00">velocity</text>
<text text-anchor="middle" x="103" y="-528.95" font-family="Times,serif" font-size="14.00">~</text>
<text text-anchor="middle" x="103" y="-511.7" font-family="Times,serif" font-size="14.00">Data</text>
</g>
<!-- velocity&#45;&gt;pred_spectrum -->
<g id="edge2" class="edge">
<title>velocity&#45;&gt;pred_spectrum</title>
<path fill="none" stroke="black" d="M85.5,-503.41C85.5,-503.41 85.5,-232.46 85.5,-232.46"/>
<polygon fill="black" stroke="black" points="89,-232.46 85.5,-222.46 82,-232.46 89,-232.46"/>
</g>
<!-- velocity&#45;&gt;pred_spectrum -->
<g id="edge4" class="edge">
<title>velocity&#45;&gt;pred_spectrum</title>
<path fill="none" stroke="black" d="M103.75,-503.41C103.75,-503.41 103.75,-233.33 103.75,-233.33"/>
<polygon fill="black" stroke="black" points="107.25,-233.33 103.75,-223.33 100.25,-233.33 107.25,-233.33"/>
</g>
<!-- pred_spectrum&#45;&gt;spectrum -->
<g id="edge3" class="edge">
<title>pred_spectrum&#45;&gt;spectrum</title>
<path fill="none" stroke="black" d="M103,-136.52C103,-136.52 103,-112.74 103,-112.74"/>
<polygon fill="black" stroke="black" points="106.5,-112.74 103,-102.74 99.5,-112.74 106.5,-112.74"/>
</g>
<!-- coeffs -->
<g id="node5" class="node">
<title>coeffs</title>
<ellipse fill="none" stroke="black" cx="263" cy="-305" rx="48.97" ry="42.25"/>
<text text-anchor="middle" x="263" y="-317.57" font-family="Times,serif" font-size="14.00">coeffs</text>
<text text-anchor="middle" x="263" y="-300.32" font-family="Times,serif" font-size="14.00">~</text>
<text text-anchor="middle" x="263" y="-283.07" font-family="Times,serif" font-size="14.00">Normal</text>
</g>
<!-- coeffs&#45;&gt;pred_spectrum -->
<g id="edge5" class="edge">
<title>coeffs&#45;&gt;pred_spectrum</title>
<path fill="none" stroke="black" d="M238.59,-268C215.08,-268 183.08,-268 183.08,-268 183.08,-268 183.08,-207.88 183.08,-207.88"/>
<polygon fill="black" stroke="black" points="186.58,-207.88 183.08,-197.88 179.58,-207.88 186.58,-207.88"/>
</g>
<!-- H_center -->
<g id="node6" class="node">
<title>H_center</title>
<ellipse fill="none" stroke="black" cx="933" cy="-425.5" rx="56.92" ry="42.25"/>
<text text-anchor="middle" x="933" y="-438.07" font-family="Times,serif" font-size="14.00">H_center</text>
<text text-anchor="middle" x="933" y="-420.82" font-family="Times,serif" font-size="14.00">~</text>
<text text-anchor="middle" x="933" y="-403.57" font-family="Times,serif" font-size="14.00">Normal</text>
</g>
<!-- H_center&#45;&gt;pred_spectrum -->
<g id="edge6" class="edge">
<title>H_center&#45;&gt;pred_spectrum</title>
<path fill="none" stroke="black" d="M976.34,-397.46C976.34,-327.17 976.34,-149 976.34,-149 976.34,-149 176.27,-149 176.27,-149"/>
<polygon fill="black" stroke="black" points="176.27,-145.5 166.27,-149 176.27,-152.5 176.27,-145.5"/>
</g>
<!-- He_center -->
<g id="node8" class="node">
<title>He_center</title>
<polygon fill="none" stroke="black" points="962.75,-334.87 849.25,-334.87 849.25,-275.12 962.75,-275.12 962.75,-334.87"/>
<text text-anchor="middle" x="906" y="-317.57" font-family="Times,serif" font-size="14.00">He_center</text>
<text text-anchor="middle" x="906" y="-300.32" font-family="Times,serif" font-size="14.00">~</text>
<text text-anchor="middle" x="906" y="-283.07" font-family="Times,serif" font-size="14.00">Deterministic</text>
</g>
<!-- H_center&#45;&gt;He_center -->
<g id="edge7" class="edge">
<title>H_center&#45;&gt;He_center</title>
<path fill="none" stroke="black" d="M919.41,-384.03C919.41,-384.03 919.41,-346.64 919.41,-346.64"/>
<polygon fill="black" stroke="black" points="922.91,-346.64 919.41,-336.64 915.91,-346.64 922.91,-346.64"/>
</g>
<!-- H_amplitude -->
<g id="node7" class="node">
<title>H_amplitude</title>
<ellipse fill="none" stroke="black" cx="659" cy="-425.5" rx="75.48" ry="42.25"/>
<text text-anchor="middle" x="659" y="-438.07" font-family="Times,serif" font-size="14.00">H_amplitude</text>
<text text-anchor="middle" x="659" y="-420.82" font-family="Times,serif" font-size="14.00">~</text>
<text text-anchor="middle" x="659" y="-403.57" font-family="Times,serif" font-size="14.00">HalfNormal</text>
</g>
<!-- H_amplitude&#45;&gt;pred_spectrum -->
<g id="edge8" class="edge">
<title>H_amplitude&#45;&gt;pred_spectrum</title>
<path fill="none" stroke="black" d="M708.38,-393.24C708.38,-330.26 708.38,-197 708.38,-197 708.38,-197 193.97,-197 193.97,-197"/>
<polygon fill="black" stroke="black" points="193.97,-193.5 183.97,-197 193.97,-200.5 193.97,-193.5"/>
</g>
<!-- He_amplitude -->
<g id="node10" class="node">
<title>He_amplitude</title>
<polygon fill="none" stroke="black" points="699.5,-334.87 584.5,-334.87 584.5,-275.12 699.5,-275.12 699.5,-334.87"/>
<text text-anchor="middle" x="642" y="-317.57" font-family="Times,serif" font-size="14.00">He_amplitude</text>
<text text-anchor="middle" x="642" y="-300.32" font-family="Times,serif" font-size="14.00">~</text>
<text text-anchor="middle" x="642" y="-283.07" font-family="Times,serif" font-size="14.00">Deterministic</text>
</g>
<!-- H_amplitude&#45;&gt;He_amplitude -->
<g id="edge9" class="edge">
<title>H_amplitude&#45;&gt;He_amplitude</title>
<path fill="none" stroke="black" d="M642,-384.03C642,-384.03 642,-346.64 642,-346.64"/>
<polygon fill="black" stroke="black" points="645.5,-346.64 642,-336.64 638.5,-346.64 645.5,-346.64"/>
</g>
<!-- He_center&#45;&gt;pred_spectrum -->
<g id="edge10" class="edge">
<title>He_center&#45;&gt;pred_spectrum</title>
<path fill="none" stroke="black" d="M906,-274.81C906,-232.59 906,-161 906,-161 906,-161 193.71,-161 193.71,-161"/>
<polygon fill="black" stroke="black" points="193.71,-157.5 183.71,-161 193.71,-164.5 193.71,-157.5"/>
</g>
<!-- H_fwhm -->
<g id="node9" class="node">
<title>H_fwhm</title>
<ellipse fill="none" stroke="black" cx="805" cy="-425.5" rx="52.68" ry="42.25"/>
<text text-anchor="middle" x="805" y="-438.07" font-family="Times,serif" font-size="14.00">H_fwhm</text>
<text text-anchor="middle" x="805" y="-420.82" font-family="Times,serif" font-size="14.00">~</text>
<text text-anchor="middle" x="805" y="-403.57" font-family="Times,serif" font-size="14.00">Gamma</text>
</g>
<!-- H_fwhm&#45;&gt;pred_spectrum -->
<g id="edge11" class="edge">
<title>H_fwhm&#45;&gt;pred_spectrum</title>
<path fill="none" stroke="black" d="M840,-393.52C840,-325.58 840,-173 840,-173 840,-173 200.86,-173 200.86,-173"/>
<polygon fill="black" stroke="black" points="200.86,-169.5 190.86,-173 200.86,-176.5 200.86,-169.5"/>
</g>
<!-- He_fwhm -->
<g id="node11" class="node">
<title>He_fwhm</title>
<polygon fill="none" stroke="black" points="830.75,-334.87 717.25,-334.87 717.25,-275.12 830.75,-275.12 830.75,-334.87"/>
<text text-anchor="middle" x="774" y="-317.57" font-family="Times,serif" font-size="14.00">He_fwhm</text>
<text text-anchor="middle" x="774" y="-300.32" font-family="Times,serif" font-size="14.00">~</text>
<text text-anchor="middle" x="774" y="-283.07" font-family="Times,serif" font-size="14.00">Deterministic</text>
</g>
<!-- H_fwhm&#45;&gt;He_fwhm -->
<g id="edge12" class="edge">
<title>H_fwhm&#45;&gt;He_fwhm</title>
<path fill="none" stroke="black" d="M791.54,-384.37C791.54,-384.37 791.54,-346.81 791.54,-346.81"/>
<polygon fill="black" stroke="black" points="795.04,-346.81 791.54,-336.81 788.04,-346.81 795.04,-346.81"/>
</g>
<!-- He_amplitude&#45;&gt;pred_spectrum -->
<g id="edge13" class="edge">
<title>He_amplitude&#45;&gt;pred_spectrum</title>
<path fill="none" stroke="black" d="M642,-274.62C642,-246.5 642,-209 642,-209 642,-209 177.4,-209 177.4,-209"/>
<polygon fill="black" stroke="black" points="177.4,-205.5 167.4,-209 177.4,-212.5 177.4,-205.5"/>
</g>
<!-- He_fwhm&#45;&gt;pred_spectrum -->
<g id="edge14" class="edge">
<title>He_fwhm&#45;&gt;pred_spectrum</title>
<path fill="none" stroke="black" d="M774,-274.72C774,-239.17 774,-185 774,-185 774,-185 201.2,-185 201.2,-185"/>
<polygon fill="black" stroke="black" points="201.2,-181.5 191.2,-185 201.2,-188.5 201.2,-181.5"/>
</g>
<!-- yplus -->
<g id="node12" class="node">
<title>yplus</title>
<ellipse fill="none" stroke="black" cx="276" cy="-425.5" rx="70.18" ry="42.25"/>
<text text-anchor="middle" x="276" y="-438.07" font-family="Times,serif" font-size="14.00">yplus</text>
<text text-anchor="middle" x="276" y="-420.82" font-family="Times,serif" font-size="14.00">~</text>
<text text-anchor="middle" x="276" y="-403.57" font-family="Times,serif" font-size="14.00">HalfNormal</text>
</g>
<!-- yplus&#45;&gt;He_amplitude -->
<g id="edge15" class="edge">
<title>yplus&#45;&gt;He_amplitude</title>
<path fill="none" stroke="black" d="M329.07,-397.5C329.07,-359.16 329.07,-295 329.07,-295 329.07,-295 572.73,-295 572.73,-295"/>
<polygon fill="black" stroke="black" points="572.73,-298.5 582.73,-295 572.73,-291.5 572.73,-298.5"/>
</g>
<!-- He_H_fwhm_ratio -->
<g id="node13" class="node">
<title>He_H_fwhm_ratio</title>
<ellipse fill="none" stroke="black" cx="465" cy="-425.5" rx="100.41" ry="42.25"/>
<text text-anchor="middle" x="465" y="-438.07" font-family="Times,serif" font-size="14.00">He_H_fwhm_ratio</text>
<text text-anchor="middle" x="465" y="-420.82" font-family="Times,serif" font-size="14.00">~</text>
<text text-anchor="middle" x="465" y="-403.57" font-family="Times,serif" font-size="14.00">TruncatedNormal</text>
</g>
<!-- He_H_fwhm_ratio&#45;&gt;He_amplitude -->
<g id="edge16" class="edge">
<title>He_H_fwhm_ratio&#45;&gt;He_amplitude</title>
<path fill="none" stroke="black" d="M498.47,-385.24C498.47,-353.31 498.47,-314 498.47,-314 498.47,-314 572.52,-314 572.52,-314"/>
<polygon fill="black" stroke="black" points="572.52,-317.5 582.52,-314 572.52,-310.5 572.52,-317.5"/>
</g>
<!-- He_H_fwhm_ratio&#45;&gt;He_fwhm -->
<g id="edge17" class="edge">
<title>He_H_fwhm_ratio&#45;&gt;He_fwhm</title>
<path fill="none" stroke="black" d="M431.53,-385.48C431.53,-374.23 431.53,-365 431.53,-365 431.53,-365 725.87,-365 725.87,-365 725.87,-365 725.87,-346.86 725.87,-346.86"/>
<polygon fill="black" stroke="black" points="729.37,-346.86 725.87,-336.86 722.37,-346.86 729.37,-346.86"/>
</g>
</g>
</svg>
