<?xml version="1.0" encoding="UTF-8" standalone="no"?>
<!DOCTYPE svg PUBLIC "-//W3C//DTD SVG 1.1//EN"
 "http://www.w3.org/Graphics/SVG/1.1/DTD/svg11.dtd">
<!-- Generated by graphviz version 11.0.0 (20240519.1550)
 -->
<!-- Pages: 1 -->
<svg width="1144pt" height="587pt"
 viewBox="0.00 0.00 1144.00 587.50" xmlns="http://www.w3.org/2000/svg" xmlns:xlink="http://www.w3.org/1999/xlink">
<g id="graph0" class="graph" transform="scale(1 1) rotate(0) translate(4 583.5)">
<polygon fill="white" stroke="none" points="-4,4 -4,-583.5 1140,-583.5 1140,4 -4,4"/>
<g id="clust1" class="cluster">
<title>clustervel (1000)</title>
<path fill="none" stroke="black" d="M20,-8C20,-8 186,-8 186,-8 192,-8 198,-14 198,-20 198,-20 198,-559.5 198,-559.5 198,-565.5 192,-571.5 186,-571.5 186,-571.5 20,-571.5 20,-571.5 14,-571.5 8,-565.5 8,-559.5 8,-559.5 8,-20 8,-20 8,-14 14,-8 20,-8"/>
<text text-anchor="middle" x="154" y="-15.95" font-family="Times,serif" font-size="14.00">vel (1000)</text>
</g>
<g id="clust2" class="cluster">
<title>clustercoeff (4)</title>
<path fill="none" stroke="black" d="M218,-229.5C218,-229.5 308,-229.5 308,-229.5 314,-229.5 320,-235.5 320,-241.5 320,-241.5 320,-343.25 320,-343.25 320,-349.25 314,-355.25 308,-355.25 308,-355.25 218,-355.25 218,-355.25 212,-355.25 206,-349.25 206,-343.25 206,-343.25 206,-241.5 206,-241.5 206,-235.5 212,-229.5 218,-229.5"/>
<text text-anchor="middle" x="283.12" y="-237.45" font-family="Times,serif" font-size="14.00">coeff (4)</text>
</g>
<g id="clust3" class="cluster">
<title>clustercloud (2)</title>
<path fill="none" stroke="black" d="M340,-241.87C340,-241.87 1116,-241.87 1116,-241.87 1122,-241.87 1128,-247.87 1128,-253.87 1128,-253.87 1128,-463.75 1128,-463.75 1128,-469.75 1122,-475.75 1116,-475.75 1116,-475.75 340,-475.75 340,-475.75 334,-475.75 328,-469.75 328,-463.75 328,-463.75 328,-253.87 328,-253.87 328,-247.87 334,-241.87 340,-241.87"/>
<text text-anchor="middle" x="1088.88" y="-249.82" font-family="Times,serif" font-size="14.00">cloud (2)</text>
</g>
<!-- spectrum -->
<g id="node1" class="node">
<title>spectrum</title>
<path fill="lightgrey" stroke="black" d="M132.75,-101C132.75,-101 73.25,-101 73.25,-101 67.25,-101 61.25,-95 61.25,-89 61.25,-89 61.25,-53.25 61.25,-53.25 61.25,-47.25 67.25,-41.25 73.25,-41.25 73.25,-41.25 132.75,-41.25 132.75,-41.25 138.75,-41.25 144.75,-47.25 144.75,-53.25 144.75,-53.25 144.75,-89 144.75,-89 144.75,-95 138.75,-101 132.75,-101"/>
<text text-anchor="middle" x="103" y="-83.7" font-family="Times,serif" font-size="14.00">spectrum</text>
<text text-anchor="middle" x="103" y="-66.45" font-family="Times,serif" font-size="14.00">~</text>
<text text-anchor="middle" x="103" y="-49.2" font-family="Times,serif" font-size="14.00">Data</text>
</g>
<!-- pred_spectrum -->
<g id="node2" class="node">
<title>pred_spectrum</title>
<ellipse fill="lightgrey" stroke="black" cx="103" cy="-179.25" rx="87.15" ry="42.25"/>
<text text-anchor="middle" x="103" y="-191.82" font-family="Times,serif" font-size="14.00">pred_spectrum</text>
<text text-anchor="middle" x="103" y="-174.57" font-family="Times,serif" font-size="14.00">~</text>
<text text-anchor="middle" x="103" y="-157.32" font-family="Times,serif" font-size="14.00">Normal</text>
</g>
<!-- pred_spectrum&#45;&gt;spectrum -->
<g id="edge1" class="edge">
<title>pred_spectrum&#45;&gt;spectrum</title>
<path fill="none" stroke="black" d="M103,-136.52C103,-136.52 103,-112.74 103,-112.74"/>
<polygon fill="black" stroke="black" points="106.5,-112.74 103,-102.74 99.5,-112.74 106.5,-112.74"/>
</g>
<!-- velocity -->
<g id="node3" class="node">
<title>velocity</title>
<path fill="lightgrey" stroke="black" d="M126.75,-563.5C126.75,-563.5 79.25,-563.5 79.25,-563.5 73.25,-563.5 67.25,-557.5 67.25,-551.5 67.25,-551.5 67.25,-515.75 67.25,-515.75 67.25,-509.75 73.25,-503.75 79.25,-503.75 79.25,-503.75 126.75,-503.75 126.75,-503.75 132.75,-503.75 138.75,-509.75 138.75,-515.75 138.75,-515.75 138.75,-551.5 138.75,-551.5 138.75,-557.5 132.75,-563.5 126.75,-563.5"/>
<text text-anchor="middle" x="103" y="-546.2" font-family="Times,serif" font-size="14.00">velocity</text>
<text text-anchor="middle" x="103" y="-528.95" font-family="Times,serif" font-size="14.00">~</text>
<text text-anchor="middle" x="103" y="-511.7" font-family="Times,serif" font-size="14.00">Data</text>
</g>
<!-- velocity&#45;&gt;pred_spectrum -->
<g id="edge2" class="edge">
<title>velocity&#45;&gt;pred_spectrum</title>
<path fill="none" stroke="black" d="M102.25,-503.41C102.25,-503.41 102.25,-233.33 102.25,-233.33"/>
<polygon fill="black" stroke="black" points="105.75,-233.33 102.25,-223.33 98.75,-233.33 105.75,-233.33"/>
</g>
<!-- velocity&#45;&gt;pred_spectrum -->
<g id="edge4" class="edge">
<title>velocity&#45;&gt;pred_spectrum</title>
<path fill="none" stroke="black" d="M120.5,-503.41C120.5,-503.41 120.5,-232.46 120.5,-232.46"/>
<polygon fill="black" stroke="black" points="124,-232.46 120.5,-222.46 117,-232.46 124,-232.46"/>
</g>
<!-- noise -->
<g id="node4" class="node">
<title>noise</title>
<path fill="lightgrey" stroke="black" d="M72,-455.37C72,-455.37 42,-455.37 42,-455.37 36,-455.37 30,-449.37 30,-443.37 30,-443.37 30,-407.62 30,-407.62 30,-401.62 36,-395.62 42,-395.62 42,-395.62 72,-395.62 72,-395.62 78,-395.62 84,-401.62 84,-407.62 84,-407.62 84,-443.37 84,-443.37 84,-449.37 78,-455.37 72,-455.37"/>
<text text-anchor="middle" x="57" y="-438.07" font-family="Times,serif" font-size="14.00">noise</text>
<text text-anchor="middle" x="57" y="-420.82" font-family="Times,serif" font-size="14.00">~</text>
<text text-anchor="middle" x="57" y="-403.57" font-family="Times,serif" font-size="14.00">Data</text>
</g>
<!-- noise&#45;&gt;pred_spectrum -->
<g id="edge3" class="edge">
<title>noise&#45;&gt;pred_spectrum</title>
<path fill="none" stroke="black" d="M57,-395.3C57,-395.3 57,-226.8 57,-226.8"/>
<polygon fill="black" stroke="black" points="60.5,-226.8 57,-216.8 53.5,-226.8 60.5,-226.8"/>
</g>
<!-- coeffs -->
<g id="node5" class="node">
<title>coeffs</title>
<ellipse fill="none" stroke="black" cx="263" cy="-305" rx="48.97" ry="42.25"/>
<text text-anchor="middle" x="263" y="-317.57" font-family="Times,serif" font-size="14.00">coeffs</text>
<text text-anchor="middle" x="263" y="-300.32" font-family="Times,serif" font-size="14.00">~</text>
<text text-anchor="middle" x="263" y="-283.07" font-family="Times,serif" font-size="14.00">Normal</text>
</g>
<!-- coeffs&#45;&gt;pred_spectrum -->
<g id="edge5" class="edge">
<title>coeffs&#45;&gt;pred_spectrum</title>
<path fill="none" stroke="black" d="M213.73,-304C189.09,-304 164.45,-304 164.45,-304 164.45,-304 164.45,-220.96 164.45,-220.96"/>
<polygon fill="black" stroke="black" points="167.95,-220.96 164.45,-210.96 160.95,-220.96 167.95,-220.96"/>
</g>
<!-- yplus -->
<g id="node6" class="node">
<title>yplus</title>
<ellipse fill="none" stroke="black" cx="406" cy="-425.5" rx="70.18" ry="42.25"/>
<text text-anchor="middle" x="406" y="-438.07" font-family="Times,serif" font-size="14.00">yplus</text>
<text text-anchor="middle" x="406" y="-420.82" font-family="Times,serif" font-size="14.00">~</text>
<text text-anchor="middle" x="406" y="-403.57" font-family="Times,serif" font-size="14.00">HalfNormal</text>
</g>
<!-- He_amplitude -->
<g id="node12" class="node">
<title>He_amplitude</title>
<polygon fill="none" stroke="black" points="480.5,-334.87 365.5,-334.87 365.5,-275.12 480.5,-275.12 480.5,-334.87"/>
<text text-anchor="middle" x="423" y="-317.57" font-family="Times,serif" font-size="14.00">He_amplitude</text>
<text text-anchor="middle" x="423" y="-300.32" font-family="Times,serif" font-size="14.00">~</text>
<text text-anchor="middle" x="423" y="-283.07" font-family="Times,serif" font-size="14.00">Deterministic</text>
</g>
<!-- yplus&#45;&gt;He_amplitude -->
<g id="edge6" class="edge">
<title>yplus&#45;&gt;He_amplitude</title>
<path fill="none" stroke="black" d="M402.39,-383.01C402.39,-383.01 402.39,-346.89 402.39,-346.89"/>
<polygon fill="black" stroke="black" points="405.89,-346.89 402.39,-336.89 398.89,-346.89 405.89,-346.89"/>
</g>
<!-- H_center -->
<g id="node7" class="node">
<title>H_center</title>
<ellipse fill="none" stroke="black" cx="1063" cy="-425.5" rx="56.92" ry="42.25"/>
<text text-anchor="middle" x="1063" y="-438.07" font-family="Times,serif" font-size="14.00">H_center</text>
<text text-anchor="middle" x="1063" y="-420.82" font-family="Times,serif" font-size="14.00">~</text>
<text text-anchor="middle" x="1063" y="-403.57" font-family="Times,serif" font-size="14.00">Normal</text>
</g>
<!-- H_center&#45;&gt;pred_spectrum -->
<g id="edge7" class="edge">
<title>H_center&#45;&gt;pred_spectrum</title>
<path fill="none" stroke="black" d="M1081.97,-385.29C1081.97,-308.61 1081.97,-149 1081.97,-149 1081.97,-149 176.12,-149 176.12,-149"/>
<polygon fill="black" stroke="black" points="176.12,-145.5 166.12,-149 176.12,-152.5 176.12,-145.5"/>
</g>
<!-- He_center -->
<g id="node10" class="node">
<title>He_center</title>
<polygon fill="none" stroke="black" points="760.75,-334.87 647.25,-334.87 647.25,-275.12 760.75,-275.12 760.75,-334.87"/>
<text text-anchor="middle" x="704" y="-317.57" font-family="Times,serif" font-size="14.00">He_center</text>
<text text-anchor="middle" x="704" y="-300.32" font-family="Times,serif" font-size="14.00">~</text>
<text text-anchor="middle" x="704" y="-283.07" font-family="Times,serif" font-size="14.00">Deterministic</text>
</g>
<!-- H_center&#45;&gt;He_center -->
<g id="edge8" class="edge">
<title>H_center&#45;&gt;He_center</title>
<path fill="none" stroke="black" d="M1044.03,-385.38C1044.03,-349.99 1044.03,-304 1044.03,-304 1044.03,-304 772.43,-304 772.43,-304"/>
<polygon fill="black" stroke="black" points="772.43,-300.5 762.43,-304 772.43,-307.5 772.43,-300.5"/>
</g>
<!-- H_amplitude -->
<g id="node8" class="node">
<title>H_amplitude</title>
<ellipse fill="none" stroke="black" cx="789" cy="-425.5" rx="75.48" ry="42.25"/>
<text text-anchor="middle" x="789" y="-438.07" font-family="Times,serif" font-size="14.00">H_amplitude</text>
<text text-anchor="middle" x="789" y="-420.82" font-family="Times,serif" font-size="14.00">~</text>
<text text-anchor="middle" x="789" y="-403.57" font-family="Times,serif" font-size="14.00">HalfNormal</text>
</g>
<!-- H_amplitude&#45;&gt;pred_spectrum -->
<g id="edge9" class="edge">
<title>H_amplitude&#45;&gt;pred_spectrum</title>
<path fill="none" stroke="black" d="M812.62,-384.93C812.62,-313.55 812.62,-173 812.62,-173 812.62,-173 201.17,-173 201.17,-173"/>
<polygon fill="black" stroke="black" points="201.17,-169.5 191.17,-173 201.17,-176.5 201.17,-169.5"/>
</g>
<!-- H_amplitude&#45;&gt;He_amplitude -->
<g id="edge10" class="edge">
<title>H_amplitude&#45;&gt;He_amplitude</title>
<path fill="none" stroke="black" d="M737.13,-394.43C737.13,-382.19 737.13,-371 737.13,-371 737.13,-371 439.29,-371 439.29,-371 439.29,-371 439.29,-346.81 439.29,-346.81"/>
<polygon fill="black" stroke="black" points="442.79,-346.81 439.29,-336.81 435.79,-346.81 442.79,-346.81"/>
</g>
<!-- H_fwhm -->
<g id="node9" class="node">
<title>H_fwhm</title>
<ellipse fill="none" stroke="black" cx="935" cy="-425.5" rx="52.68" ry="42.25"/>
<text text-anchor="middle" x="935" y="-438.07" font-family="Times,serif" font-size="14.00">H_fwhm</text>
<text text-anchor="middle" x="935" y="-420.82" font-family="Times,serif" font-size="14.00">~</text>
<text text-anchor="middle" x="935" y="-403.57" font-family="Times,serif" font-size="14.00">Gamma</text>
</g>
<!-- H_fwhm&#45;&gt;pred_spectrum -->
<g id="edge11" class="edge">
<title>H_fwhm&#45;&gt;pred_spectrum</title>
<path fill="none" stroke="black" d="M952.56,-385.33C952.56,-311.33 952.56,-161 952.56,-161 952.56,-161 193.68,-161 193.68,-161"/>
<polygon fill="black" stroke="black" points="193.68,-157.5 183.68,-161 193.68,-164.5 193.68,-157.5"/>
</g>
<!-- He_fwhm -->
<g id="node13" class="node">
<title>He_fwhm</title>
<polygon fill="none" stroke="black" points="628.75,-334.87 515.25,-334.87 515.25,-275.12 628.75,-275.12 628.75,-334.87"/>
<text text-anchor="middle" x="572" y="-317.57" font-family="Times,serif" font-size="14.00">He_fwhm</text>
<text text-anchor="middle" x="572" y="-300.32" font-family="Times,serif" font-size="14.00">~</text>
<text text-anchor="middle" x="572" y="-283.07" font-family="Times,serif" font-size="14.00">Deterministic</text>
</g>
<!-- H_fwhm&#45;&gt;He_fwhm -->
<g id="edge12" class="edge">
<title>H_fwhm&#45;&gt;He_fwhm</title>
<path fill="none" stroke="black" d="M917.44,-385.28C917.44,-371.28 917.44,-359 917.44,-359 917.44,-359 590.92,-359 590.92,-359 590.92,-359 590.92,-346.67 590.92,-346.67"/>
<polygon fill="black" stroke="black" points="594.42,-346.67 590.92,-336.67 587.42,-346.67 594.42,-346.67"/>
</g>
<!-- He_center&#45;&gt;pred_spectrum -->
<g id="edge13" class="edge">
<title>He_center&#45;&gt;pred_spectrum</title>
<path fill="none" stroke="black" d="M704,-274.72C704,-239.17 704,-185 704,-185 704,-185 201.26,-185 201.26,-185"/>
<polygon fill="black" stroke="black" points="201.26,-181.5 191.26,-185 201.26,-188.5 201.26,-181.5"/>
</g>
<!-- He_H_fwhm_ratio -->
<g id="node11" class="node">
<title>He_H_fwhm_ratio</title>
<ellipse fill="none" stroke="black" cx="595" cy="-425.5" rx="100.41" ry="42.25"/>
<text text-anchor="middle" x="595" y="-438.07" font-family="Times,serif" font-size="14.00">He_H_fwhm_ratio</text>
<text text-anchor="middle" x="595" y="-420.82" font-family="Times,serif" font-size="14.00">~</text>
<text text-anchor="middle" x="595" y="-403.57" font-family="Times,serif" font-size="14.00">TruncatedNormal</text>
</g>
<!-- He_H_fwhm_ratio&#45;&gt;He_amplitude -->
<g id="edge14" class="edge">
<title>He_H_fwhm_ratio&#45;&gt;He_amplitude</title>
<path fill="none" stroke="black" d="M504.92,-406.25C504.92,-371.99 504.92,-304 504.92,-304 504.92,-304 492.3,-304 492.3,-304"/>
<polygon fill="black" stroke="black" points="492.3,-300.5 482.3,-304 492.3,-307.5 492.3,-300.5"/>
</g>
<!-- He_H_fwhm_ratio&#45;&gt;He_fwhm -->
<g id="edge15" class="edge">
<title>He_H_fwhm_ratio&#45;&gt;He_fwhm</title>
<path fill="none" stroke="black" d="M553.08,-386.71C553.08,-386.71 553.08,-346.82 553.08,-346.82"/>
<polygon fill="black" stroke="black" points="556.58,-346.82 553.08,-336.82 549.58,-346.82 556.58,-346.82"/>
</g>
<!-- He_amplitude&#45;&gt;pred_spectrum -->
<g id="edge16" class="edge">
<title>He_amplitude&#45;&gt;pred_spectrum</title>
<path fill="none" stroke="black" d="M423,-274.62C423,-246.5 423,-209 423,-209 423,-209 177.35,-209 177.35,-209"/>
<polygon fill="black" stroke="black" points="177.35,-205.5 167.35,-209 177.35,-212.5 177.35,-205.5"/>
</g>
<!-- He_fwhm&#45;&gt;pred_spectrum -->
<g id="edge17" class="edge">
<title>He_fwhm&#45;&gt;pred_spectrum</title>
<path fill="none" stroke="black" d="M572,-274.63C572,-242.68 572,-197 572,-197 572,-197 194.07,-197 194.07,-197"/>
<polygon fill="black" stroke="black" points="194.07,-193.5 184.07,-197 194.07,-200.5 194.07,-193.5"/>
</g>
</g>
</svg>
